<?xml version="1.0" encoding="UTF-8"?>
<svg id="Layer_1" data-name="Layer 1" xmlns="http://www.w3.org/2000/svg" viewBox="0 0 170.8 161.28">
  <defs>
    <style>
      .cls-1 {
        fill: #9f2e3d;
      }
    </style>
  </defs>
  <path class="cls-1" d="M84.71,105.74c13.84-17.82,15.73-45.32,2.34-63.92-7.81-10.53-21.39-14.96-34.08-15.63-3.76-.26-7.78-.41-11.57,.3,.3-.45,.6-.89,.67-1.38,1.3-4.72,2.31-9.67,3.87-14.62,.41-1.08,1.41-2.2,1.11-3.46-1.53-3.68-7.26-4.17-10.42-6.29,.11,.04,.11,.07,.15,.07,.04,0,.07,.08,.15,.08-2.71-2.27-5.8,.33-8.37,1.6C20.09,7,11.75,11.83,4.16,17.67c-1.93,2.72-1.79,6.51-2.19,9.71-.07,2.2-.38,5.51,2.6,5.69,3.79,.6,7.52,1.45,11.2,2.64,.82,.26,1.67,.64,2.57,.97C-.08,50.52-4.32,77.91,4.24,98.74c5.8,14.32,17.97,21.32,32.89,22.69,3.31,.52,6.73,.78,10.19,.78,14.25,0,28.76-4.69,37.39-16.48ZM15.88,15.03s-.04-.33-.07-.48c2.34-1.45,4.72-2.83,7.18-4.13,1.08,1.45,3.83,2.2,4.95,3.61,.11,.67,.18,1.38,.3,2.08-3.98,2.16-8.04,4.2-12.13,6.21-.04-2.42-.15-4.88-.19-7.29h-.04Zm12.84,5.43c.26,3.13,.37,6.25,.52,9.38-2.98-1.79-6.03-3.54-9.23-4.95,2.94-1.45,5.84-2.9,8.71-4.46v.04Zm3.46-1.97c2.05-1.15,4.13-2.27,6.18-3.53,.7-.6,1.71-1.12,2.71-1.68-.97,3.46-1.86,6.99-2.6,10.45-1.53,2.08-3.39,4.13-5.28,6.14-.26-3.8-.6-7.59-.97-11.39h-.04Zm2.16-13.43c2.27,1.11,4.58,2.16,6.89,3.16-.26,.19-.56,.37-.78,.59-2.76,2.01-5.69,3.72-8.67,5.36-.04-.34-.07-.71-.11-1.04-.07-1.27-.71-2.34-1.94-2.79-1.04-.56-2.01-1.27-2.97-1.86,2.49-1.23,5.02-2.38,7.59-3.42ZM8.26,19.53c1.45-1.01,2.94-1.97,4.39-2.94-.04,2.19,.3,4.43,.22,6.58v.71c-2.16,1.04-4.32,2.08-6.47,3.09-.19,.11-.41,.22-.59,.33,.15-2.83,0-6.14,2.49-7.78h-.04Zm2.05,9.97c1.71-.78,3.42-1.49,5.14-2.27,4.09,1.86,8.15,3.76,11.98,6.25-1.94-.19-3.95,0-5.77-.52-3.57-1.56-7.44-2.64-11.34-3.42v-.04ZM74.89,109.12c-9.27,7.03-21.46,8.89-32.81,8.11-9.86-1.01-20.76-2.49-27.86-10.12C-.67,90.26,0,61.65,14.32,44.72c2.42-2.34,4.88-4.69,7.52-6.73,1.3,.22,3.46,.3,5.66,.33,.93,0,2.86-.18,4.46-1.3,1.49-1.6,1.53-1.64,2.71-2.86,.93-1,2.05-1.86,3.35-2.3,2.23-.78,4.54-1.12,6.92-1.08,17.74-.44,37.35,4.99,43.68,23.48,6.92,18.79,1.97,41.93-13.77,54.83l.04,.04Z"/>
  <path class="cls-1" d="M86.46,68.31c-.74-.19-1.38,.18-1.97,.59-4.72,3.16-8.82,7.44-11.39,12.57-2.9,6.59-3.57,13.88-2.83,20.98,.26,1.75,.15,3.83,1.42,5.24,.33,.3,.67,.41,1.01,.41,1,0,1.9-1.04,1.78-2.12-.52-2.79-.59-5.66-.63-8.48-.33-9.79,4.06-19.2,12.65-24.44,2.01-.74,2.12-4.09,0-4.69l-.04-.07Z"/>
  <path class="cls-1" d="M110.08,59.19c-3.91,.93-9.38,1.08-11.76,4.8-.56,1.34,.59,3.31,2.16,2.64,11.5-4.91,29.17-4.65,40.48,.9,18.49,8.82,24.63,31.92,17.64,50.37-4.28,11.16-14.1,19.01-24.7,24-10.71,5.06-23.21,6.14-34.9,4.43-10.49-2.98-19.49-12.58-21.24-23.52-.19-1.38-1.56-2.57-2.97-2.16-3.57,1.53-1.3,6.44-.52,9.15,4.8,12.39,16.44,23.07,30.24,22.92,1.23,.07,2.45,.11,3.68,.11,23.47,0,48.96-12.61,56.03-36.13,10.05-36.61-17.11-65.03-54.17-57.48l.04-.04Z"/>
</svg>