<?xml version="1.0" encoding="UTF-8"?>
<svg id="Capa_1" xmlns="http://www.w3.org/2000/svg" version="1.1" xmlns:xlink="http://www.w3.org/1999/xlink" viewBox="0 0 173.34 176.07">
  <!-- Generator: Adobe Illustrator 29.5.0, SVG Export Plug-In . SVG Version: 2.1.0 Build 137)  -->
  <defs>
    <style>
      .st0 {
        fill: none;
      }

      .st1 {
        fill: #9f2e3d;
      }

      .st2 {
        clip-path: url(#clippath-1);
      }

      .st3 {
        clip-path: url(#clippath);
      }
    </style>
    <clipPath id="clippath">
      <rect class="st0" x="86.59" width="5.33" height="15.28"/>
    </clipPath>
    <clipPath id="clippath-1">
      <rect class="st0" x="17.28" y="20.61" width="69.31" height="142.67"/>
    </clipPath>
  </defs>
  <g class="st3">
    <path class="st1" d="M87.15,2v10.2c0,1.2.8,2,2,2,1,0,2-.8,2-2l.2-10.2C91.35.8,90.55,0,89.35,0s-2,1-2.2,2Z"/>
  </g>
  <path class="st1" d="M101.75,9l-7.4,7.01c-.8.8-.8,2,0,2.8.4.4,1,.6,1.4.6s1-.2,1.4-.6l7.4-7.01c.8-.8.8-2,0-2.8-.6-.6-2-.6-2.8,0Z"/>
  <path class="st1" d="M73.74,9.2c-.8.8-.8,2,0,2.8l7.41,7c.4.4.8.6,1.4.6s1-.2,1.4-.6c.8-.8.8-2,0-2.8l-7.4-7c-.8-.8-2.2-.8-2.8,0Z"/>
  <path class="st1" d="M158.37,151.85l-12.6,3-11.01-45.02c11.2-5,15.01-27.61,8.6-53.21-2-7.81-7.6-26.81-11.01-34.02-.4-.8-1.4-1.2-2.2-1l-36.01,8.8c-1.01.2-1.6,1.01-1.6,2.01.2,8,4,27.41,6.01,35.21,6.2,25.21,19.6,43.21,31.61,43.21h.8l11.01,45.02-12.6,3c-1,.2-1.8,1.4-1.4,2.4.2,1,1,1.6,2,1.6h.4l29.01-7.01c1-.2,1.8-1.4,1.4-2.4-.2-1.2-1.4-1.8-2.4-1.6ZM129.36,25.61c1.4,3.2,3,7.8,4.6,12.6l-35.61,8.4c-.8-5-1.6-9.6-1.8-13.01l32.81-8ZM102.35,66.42c-.8-3.6-2.2-9.6-3.4-15.81l36.02-8.6c1.8,6.01,3.4,11.81,4.2,15.21,6.01,24.21,2.4,46.61-7.6,49.02-9.81,2.8-23.21-15.6-29.21-39.81Z"/>
  <path class="st1" d="M134.16,93.83c2.2-5.2,3-20.81-1.6-39.61-.2-1.01-1.4-1.8-2.4-1.4-1,.2-1.8,1.4-1.4,2.4,4.4,17.6,3.6,32.61,1.8,37.01-.4,1,0,2.2,1,2.6.2.2.6.2.8.2.8.2,1.4-.4,1.8-1.2Z"/>
  <g class="st2">
    <path class="st1" d="M86.55,32.21c0-1-.6-1.8-1.6-2l-36.02-8.8c-1-.2-1.8.2-2.2,1-3.4,7.2-9.01,26.21-11.01,34.01-3.2,12.6-3.8,25.21-2,35.21,1.6,9.4,5.4,15.8,10.8,18.2l-11,45.21-12.81-3.2c-1-.2-2.2.4-2.4,1.4-.2,1,.4,2.2,1.4,2.4l29.01,7h.4c1,0,1.8-.6,2-1.6.2-1-.4-2.2-1.4-2.4l-12.41-2.8,11.01-45.21h.8c5.6,0,11.6-3.8,17.01-11.2,6.2-8.01,11.2-19.41,14.4-32.21,2.01-7.6,5.8-27.01,6.01-35.01ZM49.73,25.61l32.81,8c-.2,3.4-1,8.2-1.8,13.01l-35.61-8.4c1.6-4.8,3.2-9.41,4.6-12.6ZM62.94,97.23c-5.4,7.01-11.2,10.41-15.8,9.41-4.6-1.2-8.01-6.8-9.6-15.61-1.6-9.4-1-21.41,2-33.61.8-3.6,2.4-9.4,4.2-15.2l36.01,8.6c-1.2,6.2-2.4,12.2-3.4,15.8-2.6,12.01-7.4,23.01-13.41,30.61Z"/>
  </g>
  <path class="st1" d="M48.93,52.82c-1-.2-2.2.4-2.4,1.4-4.6,18.8-3.6,34.41-1.6,39.61.4.8,1,1.2,1.8,1.2.2,0,.6,0,.8-.2,1-.4,1.6-1.6,1-2.6-1.8-4.6-2.6-19.41,1.8-37.01.4-1-.2-2.01-1.4-2.4Z"/>
  <path class="st1" d="M99.75,106.83c-4-1.6-8.2-.4-11.4,3-3.01-3.4-7.2-4.6-11.41-3-4.8,1.8-8.8,7.6-7.2,15.2,2.6,12.41,17.01,18.81,17.61,19.01.2.2.6.2.8.2s.6,0,.8-.2c.6-.2,15.01-6.6,17.6-19.01,2-7.6-2-13.4-6.8-15.2ZM102.95,121.04c-2,8.8-11.6,14.41-14.6,15.81-2.8-1.4-12.6-7.01-14.61-15.81-1.2-5.6,1.6-9.4,4.8-10.6.8-.2,1.4-.4,2.2-.4,2.2,0,4.4,1.4,6,4,.8,1.2,2.8,1.2,3.4,0,2-3.4,5.01-4.8,8.2-3.6,3,1.2,5.8,5.01,4.6,10.6Z"/>
</svg>