<?xml version="1.0" encoding="UTF-8"?>
<svg id="Capa_1" xmlns="http://www.w3.org/2000/svg" version="1.1" xmlns:xlink="http://www.w3.org/1999/xlink" viewBox="0 0 129.59 170.64">
  <!-- Generator: Adobe Illustrator 29.5.0, SVG Export Plug-In . SVG Version: 2.1.0 Build 137)  -->
  <defs>
    <style>
      .st0 {
        fill: none;
      }

      .st1 {
        fill: #9f2e3d;
      }

      .st2 {
        clip-path: url(#clippath);
      }
    </style>
    <clipPath id="clippath">
      <rect class="st0" x="10.49" width="109.8" height="155.72"/>
    </clipPath>
  </defs>
  <path class="st1" d="M71.46,55.26c3.73-.03,6.77,2.98,6.79,6.72.02,1.91-.79,3.72-2.18,5.01l-10.68,9.89-10.67-9.89c-2.73-2.53-2.9-6.82-.36-9.55,2.53-2.74,6.8-2.91,9.55-.36.02.01.03.03.04.04.82.76,2.07.76,2.89,0,1.24-1.19,2.9-1.85,4.62-1.85ZM71.43,52.46c-2.21,0-4.34.78-6.04,2.18-4.06-3.37-10.09-2.79-13.45,1.27-3.23,3.92-2.85,9.67.87,13.12l11.42,10.58c.65.61,1.68.61,2.34,0l11.41-10.58c3.87-3.59,4.1-9.65.53-13.52-1.83-1.96-4.39-3.07-7.07-3.05"/>
  <g class="st2">
    <path class="st1" d="M64.91,120.22c9.29-.27,17.05,7.04,17.32,16.34v16.35h-33.66v-15.85c-.02-9.11,7.23-16.58,16.34-16.84ZM65.46,94.13c.23.02.47.06.69.15l49.96,19.26c.82.32,1.35,1.1,1.35,1.97v35.3c0,1.16-.94,2.1-2.1,2.1h-30.33v-15.85c-.19-10.85-9.13-19.49-19.97-19.3-10.59.18-19.12,8.71-19.3,19.3v15.85H15.43c-1.16,0-2.1-.94-2.1-2.1v-35.3c0-.87.53-1.66,1.34-1.97l49.96-19.26c.21-.08.42-.14.63-.15h.21ZM65.39,28.72l28.51,28.58c.39.39.6.93.6,1.48v43.42l-27.34-10.55c-1.14-.43-2.39-.43-3.54,0l-27.35,10.55v-43.42c0-.55.22-1.09.61-1.48l28.51-28.58ZM63.99,0v11.2h-11.22v2.81h11.22v12.15l-29.08,29.17c-.92.91-1.44,2.16-1.44,3.46v44.5l-19.81,7.65c-1.9.73-3.14,2.56-3.14,4.59v35.3c0,2.71,2.2,4.91,4.91,4.91h99.92c2.71,0,4.92-2.2,4.92-4.91v-35.3c0-2.03-1.26-3.85-3.15-4.59l-19.81-7.65v-44.5c0-1.3-.51-2.55-1.42-3.46l-29.09-29.17v-12.15h11.22v-2.81h-11.22V0h-2.81"/>
  </g>
</svg>