<?xml version="1.0" encoding="UTF-8"?>
<svg id="Capa_1" xmlns="http://www.w3.org/2000/svg" version="1.1" viewBox="0 0 134.49 90.48">
  <!-- Generator: Adobe Illustrator 29.5.0, SVG Export Plug-In . SVG Version: 2.1.0 Build 137)  -->
  <defs>
    <style>
      .st0 {
        fill: #9f2e3d;
      }
    </style>
  </defs>
  <path class="st0" d="M68.89,50.5c-.38,0-.67-.14-.86-.25-.35-.21-.57-.49-.73-.7-.04-.04-.07-.08-.1-.13-1.16-1.35-1.71-3.01-1.56-4.66.16-1.73,1.08-3.35,2.58-4.58l.68-.55.68.55c1.51,1.22,2.43,2.85,2.59,4.58.15,1.65-.41,3.3-1.57,4.66-.04.04-.07.08-.1.13-.16.19-.37.46-.71.67-.1.07-.43.27-.86.28h-.03ZM68.89,42.49c-.65.73-1.05,1.59-1.13,2.47-.1,1.08.27,2.15,1.06,3.07.02.03.05.06.07.08.02-.03.04-.06.07-.08.79-.92,1.16-1.98,1.06-3.07-.08-.88-.47-1.73-1.13-2.47Z"/>
  <path class="st0" d="M45.86,85.02c-6.48,0-12.9-1.88-18.37-5.43l-2.46-1.6c-.49-.32-.64-.98-.31-1.48.32-.5.98-.64,1.48-.32l2.46,1.59c12.41,8.06,29.01,6.31,39.47-4.15l15.94-15.94.74-.75,3.07-3.07c4.18-4.18,4.18-10.99,0-15.17-2.03-2.03-4.72-3.15-7.59-3.15s-5.56,1.11-7.58,3.15l-3.07,3.07c-.42.42-1.1.42-1.52,0-.42-.42-.42-1.1,0-1.52l3.08-3.07c2.43-2.43,5.66-3.77,9.1-3.77s6.67,1.34,9.1,3.77c2.43,2.43,3.77,5.67,3.77,9.1s-1.34,6.67-3.77,9.1l-19.76,19.77c-5.44,5.43-12.65,8.87-20.3,9.67-1.16.13-2.32.18-3.48.18Z"/>
  <path class="st0" d="M91.91,85.02c-1.16,0-2.33-.06-3.49-.18-7.65-.8-14.86-4.24-20.3-9.67l-17.43-17.43h0s-2.33-2.34-2.33-2.34c-5.02-5.02-5.02-13.19,0-18.2,2.43-2.43,5.66-3.77,9.1-3.77s6.67,1.34,9.1,3.77l3.07,3.07c.42.42.42,1.09,0,1.52-.42.42-1.1.42-1.52,0l-3.07-3.07c-2.03-2.03-4.72-3.14-7.58-3.14s-5.56,1.11-7.59,3.14c-2.03,2.03-3.14,4.72-3.14,7.59s1.11,5.56,3.14,7.58l3.82,3.82h0s15.94,15.95,15.94,15.95c10.47,10.46,27.07,12.2,39.48,4.15l2.46-1.6c.49-.32,1.16-.18,1.48.32.32.49.18,1.16-.32,1.48l-2.46,1.59c-5.46,3.55-11.88,5.43-18.36,5.43Z"/>
  <path class="st0" d="M116.42,73.94c-.28,0-.55-.1-.76-.31-.42-.42-.42-1.09,0-1.52,10.65-10.65,10.65-27.97,0-38.61-5.16-5.16-12.02-8-19.31-8s-14.15,2.84-19.31,8l-8.15,8.15-8.15-8.15c-5.16-5.16-12.02-8-19.31-8s-14.15,2.84-19.31,8c-10.65,10.65-10.65,27.97,0,38.61.42.42.42,1.09,0,1.52-.42.42-1.09.42-1.52,0-5.56-5.56-8.62-12.96-8.62-20.82s3.06-15.26,8.63-20.83c5.56-5.56,12.96-8.63,20.82-8.63s15.27,3.06,20.83,8.63l6.64,6.64,6.64-6.64c5.56-5.56,12.95-8.63,20.82-8.63s15.26,3.06,20.83,8.63c5.56,5.56,8.63,12.96,8.63,20.83s-3.06,15.26-8.63,20.82c-.22.21-.49.31-.77.31Z"/>
  <path class="st0" d="M40.46,19.21l-9.03-6.32,2.93-6.84h12.21l2.93,6.84-9.03,6.32ZM34.09,12.14l6.37,4.45,6.37-4.45-1.68-3.94h-9.38l-1.68,3.94Z"/>
  <path class="st0" d="M97.32,19.21l-9.03-6.32,2.92-6.84h12.21l2.92,6.84-9.03,6.32ZM90.95,12.14l6.37,4.45,6.38-4.45-1.68-3.94h-9.38l-1.68,3.94Z"/>
</svg>