<?xml version="1.0" encoding="UTF-8"?>
<svg id="Capa_1" xmlns="http://www.w3.org/2000/svg" version="1.1" viewBox="0 0 544.99 35.16">
  <!-- Generator: Adobe Illustrator 29.5.0, SVG Export Plug-In . SVG Version: 2.1.0 Build 137)  -->
  <defs>
    <style>
      .st0 {
        fill: #9f2e3d;
      }
    </style>
  </defs>
  <path class="st0" d="M285.98,0c-3.63,0-8.48,2-14.48,6.94-27.18-22.58-27.14,16.54,0,28.21C296.11,28.1,299.57.02,285.98,0ZM240.07,5.98c-.99,0-2.31.54-3.94,1.89-7.41-6.15-7.4,4.51,0,7.69,6.71-1.92,7.65-9.57,3.95-9.58ZM304.92,5.98c-3.7,0-2.76,7.66,3.94,9.58,7.4-3.18,7.41-13.84,0-7.69-1.63-1.35-2.95-1.89-3.94-1.89ZM247.65,11.78c-2.3,0-5.77,1.84-7.37,5.53,2.45,8.47,14.13,7.71,7.71,0,3.09-3.69,1.96-5.53-.34-5.53ZM297.35,11.78c-2.3,0-3.43,1.84-.34,5.53-6.41,7.71,5.27,8.47,7.71,0-1.6-3.68-5.07-5.53-7.37-5.53ZM118.01,13.85L0,17.58l118.01,3.73,118.01-3.73-118.01-3.73ZM426.98,13.85l-118.01,3.73,118.01,3.73,118.01-3.73-118.01-3.73ZM236.13,19.6c-7.4,3.18-7.41,13.84,0,7.69,7.74,6.39,8.49-5.26,0-7.69ZM308.86,19.6c-8.49,2.43-7.74,14.07,0,7.69,7.41,6.15,7.4-4.51,0-7.69Z"/>
</svg>