<?xml version="1.0" encoding="UTF-8"?>
<svg id="Capa_1" xmlns="http://www.w3.org/2000/svg" version="1.1" xmlns:xlink="http://www.w3.org/1999/xlink" viewBox="0 0 141.05 140.53">
  <!-- Generator: Adobe Illustrator 29.5.0, SVG Export Plug-In . SVG Version: 2.1.0 Build 137)  -->
  <defs>
    <style>
      .st0 {
        fill: none;
      }

      .st1 {
        fill: #9f2e3d;
      }

      .st2 {
        clip-path: url(#clippath);
      }
    </style>
    <clipPath id="clippath">
      <rect class="st0" x="8.59" y="7.7" width="123.83" height="123.45"/>
    </clipPath>
  </defs>
  <g class="st2">
    <path class="st1" d="M8.59,124.86V20.03c0-.41.04-.81.12-1.2s.2-.78.35-1.16c.16-.38.35-.73.57-1.07.22-.33.48-.65.77-.93s.6-.54.93-.77c.34-.23.69-.42,1.07-.57s.76-.27,1.16-.35.8-.12,1.2-.12h55.5c.4,0,.8.04,1.2.12.4.08.78.19,1.16.35s.73.34,1.06.57c.34.22.65.48.94.77s.54.6.77.93c.22.34.42.69.57,1.07.16.38.28.76.35,1.16s.12.8.12,1.2-.04.81-.12,1.2-.2.78-.35,1.16c-.15.38-.34.73-.57,1.07-.22.33-.48.65-.77.93s-.6.54-.94.77c-.33.23-.69.42-1.06.57s-.76.27-1.16.35c-.4.08-.8.12-1.2.12H20.92v92.49h92.49v-49.33c0-.41.04-.81.12-1.2.08-.4.2-.79.35-1.16.16-.38.35-.73.57-1.07.22-.34.48-.65.77-.94s.6-.54.93-.77c.34-.22.69-.41,1.07-.57s.76-.27,1.16-.35c.4-.08.8-.11,1.2-.11s.81.04,1.2.11c.4.08.78.2,1.16.35s.73.34,1.07.57.65.48.93.77.54.6.77.94c.22.33.41.69.57,1.07.16.37.27.76.35,1.16.08.4.12.8.12,1.2v55.49c0,.41-.04.81-.12,1.2-.08.4-.19.78-.35,1.16s-.34.73-.57,1.07c-.23.34-.48.65-.77.93s-.59.54-.93.77c-.34.22-.69.41-1.07.57s-.76.27-1.16.35-.8.12-1.2.12H14.76c-.41,0-.81-.04-1.2-.12s-.78-.19-1.16-.35-.73-.34-1.07-.57c-.33-.23-.65-.48-.93-.77s-.54-.59-.77-.93-.42-.69-.57-1.07c-.15-.38-.27-.76-.35-1.16s-.12-.8-.12-1.2ZM122.39,9.51c-.29-.29-.6-.54-.94-.77-.33-.23-.69-.42-1.06-.57s-.76-.27-1.16-.35c-.4-.08-.8-.12-1.2-.12s-.81.04-1.2.12c-.4.08-.78.19-1.16.35s-.73.34-1.07.57c-.34.22-.65.48-.93.77l-40.86,40.86v16.44h16.44l40.86-40.85c.29-.29.54-.6.77-.94.22-.33.41-.69.57-1.07.16-.37.27-.76.35-1.16.08-.4.11-.8.11-1.2s-.04-.81-.11-1.2c-.08-.4-.2-.79-.35-1.16-.16-.38-.34-.73-.57-1.07-.23-.34-.48-.65-.77-.94l-7.72-7.72Z"/>
  </g>
</svg>