<?xml version="1.0" encoding="UTF-8"?>
<svg id="Capa_1" xmlns="http://www.w3.org/2000/svg" version="1.1" viewBox="0 0 151.47 248.41">
  <!-- Generator: Adobe Illustrator 29.5.0, SVG Export Plug-In . SVG Version: 2.1.0 Build 137)  -->
  <path d="M144.67,233.1h-34.5c-10.14-9.42-14.88-24.19-18.76-37.24-7.43-24.91-9.88-49.12-14.75-74.25-.28-1.46.01-3.1-1.98-3.51l.03,50.54c-2.15,21.49-2.1,43.47-8.04,64.46H-3.33l7.41-7.09c26.54-39.03,9.78-92.47,22.32-133.68,4.2-13.8,14.65-27.91,13.15-42.63-1.13-11.09-10.21-17.6-8.63-29.84.35-2.75,4.76-14.06,6.72-15.27,6.17-3.81,23.37,7.07,28.52,11.17,5.21-4.42,22.87-15.2,29.07-10.73,3.12,2.25,6.16,11.9,6.35,15.72.51,10.01-7.3,17.31-8.68,26.08-2.98,18.87,12.16,39.02,15.49,58.03,2.43,13.87,1.3,27.1,2.28,40.72,2.26,31.34,11.27,64.95,33.99,87.51Z"/>
</svg>