<?xml version="1.0" encoding="UTF-8"?>
<svg id="Capa_1" xmlns="http://www.w3.org/2000/svg" version="1.1" viewBox="0 0 119.85 242.69">
  <!-- Generator: Adobe Illustrator 29.5.0, SVG Export Plug-In . SVG Version: 2.1.0 Build 137)  -->
  <path d="M57.13,2.1l-7,4.01,2.99,6.99-2.99.51c3.36,9.3,3.22,18.73,3,28.48,1.78.39,1.98-.52,2.84-1.65,2.98-3.91,5.94-19.67,6.15-24.86.11-2.76-1.24-13.93-4.99-13.48.06,0-.36-1.07.55-1.05,4.78.09,9.38,6.97,13.9,9.1,4.92,2.32,17.5,2.38,19.62,5.38,1.14,1.62,3.16,15.13,3.63,18.35,1.4,9.56,3.64,26.49,3.37,35.72-.36,12.07-10.23,12.82-18.08,19.2l2.07,30.64-5.08,2.34c-1.21,7.11-1.01,14.59-2.1,21.69-2.19,14.23-5.96,27.38-5.91,42.08,3.63,10.47-.75,37.63,5.6,45.49,2.55,3.16,9.28,4.24,8.44,10.05-4.93.81-8.18,2.46-13.23.74-3.34-1.14-4.31-3.64-5.79-4.26-1.77-.74-7.36,1.5-9.5-2.45l-10.98-80.03-.46,44.55c-.63,8.51-1.7,16.68-2.94,25.06-.62,4.2,1.49,11.22-4.06,12.98-3.31,1.05-5.5-.89-7.35-.44-1.29.31-2.85,2.97-5.11,3.93-5.44,2.31-12.68,2.12-17.55-1.57,3.15-7.26,12.01-4.55,13.75-13.23-.92-16.53,2.47-33.28,1.27-49.81-.99-13.6-5.76-29.15-6.04-42.98-.1-4.87,1.33-9.04,1.06-13.86l-5.06-1.63,4.03-29.43c-.56-3.57-6.32-6.1-8.56-8.52C.18,73.22-.36,69.98.14,60.61.43,55.18,7.21,15.15,9.37,13.34c5.49-1.89,12.13-1.83,17.46-4.04,4.2-1.75,6.8-5.87,11.29-7.2-4.17,14.8-4.3,29.49,7,41-.69-10.48,1.42-20.72,3-30.99l-3.5,1.99c-1.88-1.4,3.8-7.6,3.5-7.98l-7-4C44.22,1.19,46.14-.11,49.64,0c3.22.11,5.21,1.97,7.49,2.09Z"/>
</svg>