<?xml version="1.0" encoding="UTF-8"?>
<svg id="Capa_1" xmlns="http://www.w3.org/2000/svg" version="1.1" xmlns:xlink="http://www.w3.org/1999/xlink" viewBox="0 0 173.34 160.45">
  <!-- Generator: Adobe Illustrator 29.5.0, SVG Export Plug-In . SVG Version: 2.1.0 Build 137)  -->
  <defs>
    <style>
      .st0 {
        fill: none;
      }

      .st1 {
        fill: #9f2e3d;
      }

      .st2 {
        clip-path: url(#clippath);
      }
    </style>
    <clipPath id="clippath">
      <rect class="st0" x="16.79" y="17.72" width="141.52" height="132.83"/>
    </clipPath>
  </defs>
  <g class="st2">
    <path class="st1" d="M150.12,45.66h-37.82c1.13-1.11,2.08-2.35,2.84-3.74.76-1.39,1.3-2.86,1.63-4.42s.41-3.11.27-4.69c-.14-1.58-.52-3.1-1.11-4.57-.59-1.47-1.4-2.82-2.4-4.05s-2.16-2.29-3.47-3.17c-1.32-.89-2.73-1.56-4.25-2.02-1.52-.46-3.07-.69-4.65-.69h-.04c-1.38,0-2.73.17-4.06.53-1.33.35-2.6.86-3.8,1.55-1.2.68-2.29,1.49-3.28,2.46-.98.96-1.83,2.03-2.54,3.21-.29-.48-.6-.95-.94-1.41-.34-.45-.7-.88-1.09-1.3-.39-.41-.79-.8-1.22-1.17s-.88-.71-1.34-1.04-.94-.62-1.44-.89c-.49-.27-1.01-.52-1.53-.73-.52-.22-1.05-.41-1.59-.57s-1.09-.29-1.65-.39c-.56-.1-1.12-.18-1.68-.22s-1.13-.06-1.69-.04c-.56.02-1.13.06-1.69.14-.56.08-1.11.19-1.66.32s-1.09.3-1.62.49-1.05.41-1.56.66c-.51.25-1,.53-1.48.83s-.94.63-1.39.97c-.44.35-.86.72-1.27,1.12-.4.4-.79.81-1.15,1.24-.36.44-.69.89-1.01,1.36-.31.47-.6.96-.85,1.46-.26.51-.49,1.02-.7,1.55-.21.53-.39,1.06-.53,1.6-.15.55-.27,1.1-.35,1.66-.09.56-.15,1.12-.18,1.68-.03.57-.03,1.13,0,1.7.03.56.09,1.13.18,1.68s.21,1.11.36,1.66c.15.54.32,1.08.53,1.6.2.53.44,1.04.7,1.54.26.51.55.99.86,1.46.31.47.65.92,1.01,1.36s.74.85,1.15,1.24H24.76c-.52,0-1.04.05-1.55.16-.52.1-1.02.26-1.5.45-.48.2-.94.45-1.38.74-.44.29-.84.62-1.21.99s-.7.78-.99,1.21c-.29.44-.54.9-.73,1.38-.2.48-.35.98-.46,1.49-.1.52-.15,1.03-.15,1.56v17.09c0,.3.06.59.17.88.11.28.28.53.49.74s.46.38.74.49c.28.12.57.18.87.18h11.4v69.52c0,.52.05,1.04.16,1.55.1.52.26,1.02.45,1.49.2.48.45.95.74,1.38.29.44.62.84.99,1.21.37.37.77.7,1.21.99.43.29.89.54,1.38.73.48.2.98.35,1.49.46.52.1,1.04.15,1.56.15h98.01c.53,0,1.04-.05,1.56-.15.52-.1,1.01-.26,1.49-.46.48-.2.94-.45,1.38-.73.44-.29.84-.63,1.21-.99s.7-.77.99-1.21c.29-.43.54-.9.74-1.38.2-.48.35-.98.45-1.49.1-.51.16-1.03.16-1.55v-69.52h11.4c.3,0,.59-.06.88-.18.28-.11.53-.28.74-.49s.38-.46.49-.74c.11-.28.17-.57.17-.88v-17.09c0-.53-.05-1.04-.16-1.56-.1-.51-.26-1.01-.45-1.49-.2-.48-.45-.94-.74-1.38-.29-.43-.62-.84-.99-1.21s-.78-.7-1.21-.99c-.44-.29-.9-.54-1.38-.74-.48-.2-.98-.35-1.49-.45-.52-.1-1.03-.16-1.56-.16ZM89.72,34.26c0-.75.07-1.49.22-2.22s.36-1.44.65-2.14.64-1.35,1.05-1.97c.42-.63.89-1.2,1.42-1.73.53-.53,1.1-1,1.73-1.42.62-.42,1.28-.77,1.97-1.05s1.4-.51,2.14-.65,1.47-.22,2.22-.22h.04c.74,0,1.49.07,2.22.22.73.15,1.45.36,2.14.65s1.35.64,1.97,1.06c.63.41,1.2.89,1.73,1.42s1,1.1,1.42,1.72c.42.63.77,1.28,1.05,1.97.29.69.51,1.4.65,2.14s.22,1.47.22,2.22-.07,1.49-.22,2.22-.36,1.45-.65,2.14c-.29.69-.64,1.35-1.05,1.97-.42.62-.89,1.2-1.42,1.72s-1.1,1.01-1.73,1.42c-.62.42-1.28.77-1.97,1.06s-1.41.5-2.14.65c-.73.15-1.47.22-2.22.22h-11.43v-11.4ZM62.37,34.26c0-.75.07-1.49.22-2.22s.36-1.45.65-2.14c.29-.69.64-1.35,1.05-1.97.42-.62.89-1.2,1.42-1.72s1.1-1.01,1.73-1.42c.62-.42,1.28-.77,1.97-1.06s1.41-.5,2.14-.65c.73-.15,1.47-.22,2.22-.22s1.49.07,2.22.22,1.45.36,2.14.65,1.35.64,1.97,1.06c.63.41,1.2.89,1.73,1.42s1,1.1,1.42,1.72c.42.63.77,1.28,1.05,1.97.29.69.51,1.4.65,2.14s.22,1.47.22,2.22v11.4h-11.4c-.74,0-1.48-.07-2.22-.22s-1.45-.36-2.14-.65c-.69-.29-1.34-.64-1.97-1.05-.62-.42-1.2-.89-1.72-1.42s-1-1.1-1.42-1.73c-.42-.62-.77-1.28-1.06-1.97s-.5-1.4-.65-2.14-.22-1.47-.22-2.22ZM21.34,68.45v-14.81c0-.45.09-.89.26-1.31.17-.42.42-.79.74-1.11s.69-.57,1.11-.74c.42-.18.85-.27,1.31-.27h46.73v18.23H21.34ZM76.05,145.95h-37.61c-.45,0-.89-.09-1.31-.26s-.79-.42-1.11-.74c-.32-.32-.57-.69-.74-1.11-.18-.42-.26-.85-.26-1.31v-69.52h41.03v72.94ZM94.28,145.95h-13.68v-72.94h13.68v72.94ZM76.05,68.45v-18.23h22.79v18.23h-22.79ZM139.87,142.53c0,.45-.09.89-.26,1.31-.18.42-.42.79-.74,1.11s-.69.57-1.11.74c-.42.17-.85.26-1.31.26h-37.61v-72.94h41.03v69.52ZM153.55,68.45h-50.15v-18.23h46.72c.45,0,.89.09,1.31.27.42.17.79.42,1.11.74.32.32.57.69.74,1.11.18.42.27.85.27,1.31v14.81Z"/>
  </g>
</svg>