<?xml version="1.0" encoding="UTF-8"?>
<svg id="Capa_1" xmlns="http://www.w3.org/2000/svg" version="1.1" viewBox="0 0 227.51 247.72">
  <!-- Generator: Adobe Illustrator 29.5.0, SVG Export Plug-In . SVG Version: 2.1.0 Build 137)  -->
  <defs>
    <style>
      .st0 {
        fill: #9f2e3d;
      }
    </style>
  </defs>
  <path class="st0" d="M208.01,95.8c0-.9-.3-1.5-.9-2.1l-26.64-26.64v-23.65c0-1.8-1.2-2.99-2.99-2.99H50.24c-1.8,0-2.99,1.2-2.99,2.99v23.65l-26.65,26.64c-.6.6-.9,1.2-.9,2.1v127.53c0,4.79,3.89,8.68,8.68,8.68h170.64c4.79,0,8.68-3.9,8.68-8.68l.3-127.53ZM85.27,162.25l-59.27,59.57v-118.84l59.27,59.27ZM89.46,166.44l22.45,22.45c.6.6,1.49.9,2.09.9s1.49-.3,2.09-.9l22.16-22.15,59.57,59.27H30.18l59.28-59.57ZM142.75,162.25l59.27-59.27v118.84l-59.27-59.57ZM200.82,95.8l-20.06,20.05v-40.11l20.06,20.06ZM174.78,46.4v75.44l-60.77,60.77-60.77-60.77V46.4h121.54ZM47.25,75.44v40.41l-20.06-20.05,20.06-20.36Z"/>
  <path class="st0" d="M114.01,135.31c20.95,0,38.02-17.06,38.02-38.02s-17.06-38.02-38.02-38.02-38.02,17.06-38.02,38.02,17.07,38.02,38.02,38.02ZM114.01,64.96c17.66,0,32.03,14.37,32.03,32.03s-14.37,32.03-32.03,32.03-32.03-14.36-32.03-32.03,14.37-32.03,32.03-32.03Z"/>
  <path class="st0" d="M105.92,110.76c1.2,1.2,2.99,1.2,4.19,0l22.75-22.75c1.2-1.2,1.2-2.99,0-4.19-1.2-1.19-2.99-1.19-4.19,0l-20.66,20.66-8.68-8.68c-1.2-1.2-2.99-1.2-4.19,0-1.2,1.19-1.2,2.99,0,4.19l10.78,10.78Z"/>
  <path class="st0" d="M101.73,204.76h24.85c1.8,0,2.99-1.2,2.99-2.99s-1.2-2.99-2.99-2.99h-24.85c-1.8,0-2.99,1.2-2.99,2.99s1.19,2.99,2.99,2.99Z"/>
  <path class="st0" d="M139.15,211.05h-50.29c-1.8,0-2.99,1.2-2.99,2.99s1.2,2.99,2.99,2.99h50.59c1.8,0,2.99-1.2,2.99-2.99s-1.49-2.99-3.29-2.99Z"/>
</svg>